#!OML:ASF I:\Actors\actors\Patient Classification 2\Patient 1\Session 1\actor1.ASF
:FULLY-SPECIFIED
:DEGREES
750
root -0.41021 18.6795 5.22954 15.558 0.512309 -7.88877
lowerback 23.1049 -1.3952 -2.35189
upperback 3.81034 -2.35392 0.263827
thorax -8.58344 -1.04617 2.33603
lowerneck 11.0007 -19.5708 -18.1507
upperneck -0.00436878 -29.1153 27.6346
head 5.19492 -15.2701 9.47789
rclavicle 3.89618e-014 3.18055e-015
rhumerus 57.9573 -7.65856 -22.1447
rradius 60.0663
rwrist -43.6747
rhand 48.1887 -56.8972
rfingers 7.12502
rthumb 68.7237 -56.3193
lclavicle 3.89618e-014 3.18055e-015
lhumerus -47.2097 -2.8957 80.6306
lradius 75.1031
lwrist 14.8915
lhand -6.22447 -19.9914
lfingers 7.12502
lthumb 19.6166 9.03895
rfemur -10.7497 -0.23271 21.5574
rtibia -4.29375e-014
rfoot -12.2108 -14.6751
rtoes -10.8269
lfemur -30.5949 1.48423 -6.07111
ltibia 35.6847
lfoot -20.5356 8.14416
ltoes -56.2069
751
root -0.409638 18.6814 5.23625 15.6041 0.478914 -7.8476
lowerback 23.0874 -1.38738 -2.32767
upperback 3.81081 -2.33203 0.321217
thorax -8.57328 -1.03602 2.37809
lowerneck 10.999 -19.6188 -18.2025
upperneck 0.0314707 -29.1859 27.5819
head 5.22088 -15.3004 9.45008
rclavicle 1.74931e-014 -1.90833e-014
rhumerus 58.2375 -7.81302 -23.0307
rradius 60.3662
rwrist -45.4975
rhand 48.0101 -56.4942
rfingers 7.12502
rthumb 68.5983 -56.2418
lclavicle 1.74931e-014 -1.90833e-014
lhumerus -47.2392 -3.01594 80.8268
lradius 75.258
lwrist 14.9203
lhand -6.22319 -19.9508
lfingers 7.12502
lthumb 19.6178 9.0794
rfemur -10.7792 -0.208386 21.5058
rtibia 9.54166e-015
rfoot -12.1919 -14.7001
rtoes -11.1372
lfemur -30.5913 1.49271 -6.1262
ltibia 35.651
lfoot -20.5686 8.1814
ltoes -56.2148
752
root -0.409316 18.6827 5.24243 15.6801 0.44503 -7.82217
lowerback 23.0466 -1.38282 -2.28299
upperback 3.79545 -2.31087 0.361403
thorax -8.56998 -1.02676 2.38933
lowerneck 11.0695 -19.6008 -18.2521
upperneck -0.0129496 -29.1693 27.6357
head 5.20978 -15.3001 9.48485
rclavicle 4.85035e-014 1.27222e-014
rhumerus 58.495 -7.89449 -24.0686
rradius 60.6589
rwrist -47.2609
rhand 47.727 -56.1411
rfingers 7.12502
rthumb 68.3981 -56.3968
lclavicle 4.85035e-014 1.27222e-014
lhumerus -47.2753 -3.16089 80.9683
lradius 75.4021
lwrist 14.9394
lhand -6.24219 -19.931
lfingers 7.12502
lthumb 19.5995 9.101
rfemur -10.8467 -0.177835 21.4727
rtibia -4.85035e-014
rfoot -12.2094 -14.7316
rtoes -11.3323
lfemur -30.6261 1.50445 -6.15991
ltibia 35.6244
lfoot -20.5674 8.20664
ltoes -56.1743
753
root -0.408677 18.6836 5.24878 15.7692 0.419456 -7.79759
lowerback 22.982 -1.37613 -2.20337
upperback 3.78793 -2.27804 0.400699
thorax -8.54749 -1.01349 2.37513
lowerneck 11.0534 -19.5556 -18.3316
upperneck -0.0611212 -29.1253 27.8262
head 5.23493 -15.2839 9.55893
rclavicle -5.32743e-014 -1.59028e-015
rhumerus 58.8704 -7.79594 -25.4973
rradius 60.7742
rwrist -48.4447
rhand 47.6022 -55.7578
rfingers 7.12502
rthumb 68.3093 -56.2344
lclavicle -5.32743e-014 -1.59028e-015
lhumerus -47.2048 -3.27147 81.1396
lradius 75.482
lwrist 14.9501
lhand -6.21023 -19.9561
lfingers 7.12502
lthumb 19.6303 9.07284
rfemur -10.9284 -0.156179 21.437
rtibia -1.59028e-014
rfoot -12.2314 -14.7281
rtoes -11.3878
lfemur -30.6822 1.57163 -6.20452
ltibia 35.5985
lfoot -20.524 8.17099
ltoes -56.1328
754
root -0.407742 18.685 5.25608 15.8139 0.407191 -7.74915
lowerback 22.9692 -1.36634 -2.12973
upperback 3.79484 -2.24247 0.450607
thorax -8.53573 -0.998418 2.37673
lowerneck 10.9525 -19.557 -18.4053
upperneck -0.0299421 -29.1431 27.9438
head 5.29806 -15.2858 9.58393
rclavicle -7.15625e-015 2.54444e-014
rhumerus 59.1537 -8.20553 -25.9921
rradius 60.9957
rwrist -50.2453
rhand 48.1987 -55.4242
rfingers 7.12502
rthumb 68.7307 -54.8279
lclavicle -7.15625e-015 2.54444e-014
lhumerus -47.0653 -3.36004 81.3527
lradius 75.4851
lwrist 14.9942
lhand -6.23737 -20.023
lfingers 7.12502
lthumb 19.6042 9.00855
rfemur -10.9543 -0.156252 21.3767
rtibia 0
rfoot -12.2203 -14.722
rtoes -11.4857
lfemur -30.691 1.69161 -6.29288
ltibia 35.5678
lfoot -20.5098 8.0977
ltoes -56.2012
755
root -0.407268 18.687 5.26255 15.8519 0.391314 -7.69484
lowerback 22.9657 -1.36162 -2.09309
upperback 3.79249 -2.22228 0.504721
thorax -8.53665 -0.989151 2.40918
lowerneck 10.8335 -19.58 -18.3971
upperneck 0.115135 -29.1794 27.8823
head 5.35711 -15.2858 9.53801
rclavicle 1.59028e-015 2.54444e-014
rhumerus 59.4248 -8.25576 -27.1357
rradius 61.2714
rwrist -51.3892
rhand 48.6079 -55.1722
rfingers 7.12502
rthumb 69.015 -53.8144
lclavicle 1.59028e-015 2.54444e-014
lhumerus -47.0615 -3.45434 81.5154
lradius 75.5529
lwrist 15.1024
lhand -6.32144 -20.1382
lfingers 7.12502
lthumb 19.5233 8.90158
rfemur -10.9763 -0.153635 21.3142
rtibia 8.74653e-015
rfoot -12.2082 -14.7375
rtoes -11.5339
lfemur -30.689 1.70657 -6.36368
ltibia 35.5352
lfoot -20.5448 8.11017
ltoes -56.2499
756
root -0.407447 18.6889 5.26713 15.9151 0.349565 -7.6713
lowerback 22.9202 -1.34755 -2.0613
upperback 3.76933 -2.19142 0.552267
thorax -8.5392 -0.974652 2.43309
lowerneck 10.683 -19.619 -18.2079
upperneck 0.387378 -29.2089 27.5929
head 5.38805 -15.2695 9.40077
rclavicle 1.43125e-014 -3.18055e-015
rhumerus 59.7164 -8.20854 -28.5111
rradius 61.5551
rwrist -52.5233
rhand 48.5031 -54.9629
rfingers 7.12502
rthumb 68.9426 -53.802
lclavicle 1.43125e-014 -3.18055e-015
lhumerus -47.1667 -3.58241 81.6162
lradius 75.7043
lwrist 15.2483
lhand -6.34296 -20.1833
lfingers 7.12502
lthumb 19.5026 8.85859
rfemur -11.0361 -0.116601 21.2768
rtibia 0
rfoot -12.2405 -14.7504
rtoes -11.2419
lfemur -30.7165 1.70346 -6.39292
ltibia 35.5053
lfoot -20.5167 8.15072
ltoes -56.1909
757
root -0.407796 18.69 5.27064 15.9664 0.31672 -7.67073
lowerback 22.8883 -1.32089 -1.97179
upperback 3.75454 -2.1312 0.593185
thorax -8.54367 -0.947997 2.40843
lowerneck 10.6603 -19.6493 -18.0291
upperneck 0.443528 -29.2158 27.4489
head 5.35634 -15.2646 9.33444
rclavicle 2.38542e-015 3.18055e-015
rhumerus 59.9926 -8.11476 -30.0512
rradius 61.7821
rwrist -53.4038
rhand 48.5164 -54.5679
rfingers 7.12502
rthumb 68.9518 -53.3821
lclavicle 2.38542e-015 3.18055e-015
lhumerus -47.241 -3.73558 81.7173
lradius 75.8746
lwrist 15.3727
lhand -6.29521 -20.1092
lfingers 7.12502
lthumb 19.5486 8.92806
rfemur -11.0803 -0.0820676 21.2641
rtibia 2.78299e-014
rfoot -12.3 -14.7312
rtoes -10.6351
lfemur -30.7538 1.80591 -6.41876
ltibia 35.488
lfoot -20.3901 8.11426
ltoes -56.1538
758
root -0.407717 18.6909 5.27459 16.0298 0.340633 -7.66501
lowerback 22.845 -1.30848 -1.83721
upperback 3.76475 -2.0765 0.650603
thorax -8.51504 -0.925855 2.37668
lowerneck 10.6882 -19.6449 -18.0183
upperneck 0.302922 -29.1964 27.5919
head 5.32959 -15.2658 9.38698
rclavicle 2.06736e-014 -3.18055e-015
rhumerus 60.2965 -8.09943 -31.5209
rradius 61.964
rwrist -54.427
rhand 48.5639 -54.2058
rfingers 7.12502
rthumb 68.9847 -52.9308
lclavicle 2.06736e-014 -3.18055e-015
lhumerus -47.237 -3.86028 81.8534
lradius 76.0192
lwrist 15.465
lhand -6.23732 -20.1067
lfingers 7.12502
lthumb 19.6042 8.92487
rfemur -11.1312 -0.102982 21.2632
rtibia -8.74653e-015
rfoot -12.3509 -14.6937
rtoes -10.098
lfemur -30.8275 1.84781 -6.43328
ltibia 35.4902
lfoot -20.3163 8.09909
ltoes -56.203
